<svg width="281" height="281" viewBox="0 0 281 281" fill="none" xmlns="http://www.w3.org/2000/svg">
<circle cx="5.06417" cy="5.15206" r="4.83858" fill="#F2994A"/>
<circle cx="38.9341" cy="5.15206" r="4.83858" fill="#F2994A"/>
<circle cx="72.8041" cy="5.15206" r="4.83858" fill="#F2994A"/>
<circle cx="106.674" cy="5.15206" r="4.83858" fill="#F2994A"/>
<circle cx="140.544" cy="5.15206" r="4.83858" fill="#F2994A"/>
<circle cx="174.415" cy="5.15206" r="4.83858" fill="#F2994A"/>
<circle cx="208.285" cy="5.15206" r="4.83858" fill="#F2994A"/>
<circle cx="242.155" cy="5.15206" r="4.83858" fill="#F2994A"/>
<circle cx="276.025" cy="5.15206" r="4.83858" fill="#F2994A"/>
<circle cx="5.06411" cy="39.0222" r="4.83858" fill="#F2994A"/>
<circle cx="38.9341" cy="39.0222" r="4.83858" fill="#F2994A"/>
<circle cx="72.8041" cy="39.0222" r="4.83858" fill="#F2994A"/>
<circle cx="106.674" cy="39.0222" r="4.83858" fill="#F2994A"/>
<circle cx="140.544" cy="39.0222" r="4.83858" fill="#F2994A"/>
<circle cx="174.415" cy="39.0222" r="4.83858" fill="#F2994A"/>
<circle cx="208.285" cy="39.0222" r="4.83858" fill="#F2994A"/>
<circle cx="242.155" cy="39.0222" r="4.83858" fill="#F2994A"/>
<circle cx="276.025" cy="39.0222" r="4.83858" fill="#F2994A"/>
<circle cx="5.06411" cy="72.8923" r="4.83858" fill="#F2994A"/>
<circle cx="38.9341" cy="72.8923" r="4.83858" fill="#F2994A"/>
<circle cx="72.8041" cy="72.8923" r="4.83858" fill="#F2994A"/>
<circle cx="106.674" cy="72.8923" r="4.83858" fill="#F2994A"/>
<circle cx="140.544" cy="72.8923" r="4.83858" fill="#F2994A"/>
<circle cx="174.415" cy="72.8923" r="4.83858" fill="#F2994A"/>
<circle cx="208.285" cy="72.8923" r="4.83858" fill="#F2994A"/>
<circle cx="242.155" cy="72.8923" r="4.83858" fill="#F2994A"/>
<circle cx="276.025" cy="72.8923" r="4.83858" fill="#F2994A"/>
<circle cx="5.06411" cy="106.762" r="4.83858" fill="#F2994A"/>
<circle cx="38.9341" cy="106.762" r="4.83858" fill="#F2994A"/>
<circle cx="72.8041" cy="106.762" r="4.83858" fill="#F2994A"/>
<circle cx="106.674" cy="106.762" r="4.83858" fill="#F2994A"/>
<circle cx="140.544" cy="106.762" r="4.83858" fill="#F2994A"/>
<circle cx="174.415" cy="106.762" r="4.83858" fill="#F2994A"/>
<circle cx="208.285" cy="106.762" r="4.83858" fill="#F2994A"/>
<circle cx="242.155" cy="106.762" r="4.83858" fill="#F2994A"/>
<circle cx="276.025" cy="106.762" r="4.83858" fill="#F2994A"/>
<circle cx="5.06411" cy="140.633" r="4.83858" fill="#F2994A"/>
<circle cx="38.9341" cy="140.633" r="4.83858" fill="#F2994A"/>
<circle cx="72.8041" cy="140.633" r="4.83858" fill="#F2994A"/>
<circle cx="106.674" cy="140.633" r="4.83858" fill="#F2994A"/>
<circle cx="140.544" cy="140.633" r="4.83858" fill="#F2994A"/>
<circle cx="174.415" cy="140.633" r="4.83858" fill="#F2994A"/>
<circle cx="208.285" cy="140.633" r="4.83858" fill="#F2994A"/>
<circle cx="242.155" cy="140.633" r="4.83858" fill="#F2994A"/>
<circle cx="276.025" cy="140.633" r="4.83858" fill="#F2994A"/>
<circle cx="5.06411" cy="174.503" r="4.83858" fill="#F2994A"/>
<circle cx="38.9341" cy="174.503" r="4.83858" fill="#F2994A"/>
<circle cx="72.8041" cy="174.503" r="4.83858" fill="#F2994A"/>
<circle cx="106.674" cy="174.503" r="4.83858" fill="#F2994A"/>
<circle cx="140.544" cy="174.503" r="4.83858" fill="#F2994A"/>
<circle cx="174.415" cy="174.503" r="4.83858" fill="#F2994A"/>
<circle cx="208.285" cy="174.503" r="4.83858" fill="#F2994A"/>
<circle cx="242.155" cy="174.503" r="4.83858" fill="#F2994A"/>
<circle cx="276.025" cy="174.503" r="4.83858" fill="#F2994A"/>
<circle cx="5.06411" cy="208.373" r="4.83858" fill="#F2994A"/>
<circle cx="38.9341" cy="208.373" r="4.83858" fill="#F2994A"/>
<circle cx="72.8041" cy="208.373" r="4.83858" fill="#F2994A"/>
<circle cx="106.674" cy="208.373" r="4.83858" fill="#F2994A"/>
<circle cx="140.544" cy="208.373" r="4.83858" fill="#F2994A"/>
<circle cx="174.415" cy="208.373" r="4.83858" fill="#F2994A"/>
<circle cx="208.285" cy="208.373" r="4.83858" fill="#F2994A"/>
<circle cx="242.155" cy="208.373" r="4.83858" fill="#F2994A"/>
<circle cx="276.025" cy="208.373" r="4.83858" fill="#F2994A"/>
<circle cx="5.06411" cy="242.243" r="4.83858" fill="#F2994A"/>
<circle cx="38.9341" cy="242.243" r="4.83858" fill="#F2994A"/>
<circle cx="72.8041" cy="242.243" r="4.83858" fill="#F2994A"/>
<circle cx="106.674" cy="242.243" r="4.83858" fill="#F2994A"/>
<circle cx="140.544" cy="242.243" r="4.83858" fill="#F2994A"/>
<circle cx="174.415" cy="242.243" r="4.83858" fill="#F2994A"/>
<circle cx="208.285" cy="242.243" r="4.83858" fill="#F2994A"/>
<circle cx="242.155" cy="242.243" r="4.83858" fill="#F2994A"/>
<circle cx="276.025" cy="242.243" r="4.83858" fill="#F2994A"/>
<circle cx="5.06411" cy="276.113" r="4.83858" fill="#F2994A"/>
<circle cx="38.9341" cy="276.113" r="4.83858" fill="#F2994A"/>
<circle cx="72.8041" cy="276.113" r="4.83858" fill="#F2994A"/>
<circle cx="106.674" cy="276.113" r="4.83858" fill="#F2994A"/>
<circle cx="140.544" cy="276.113" r="4.83858" fill="#F2994A"/>
<circle cx="174.415" cy="276.113" r="4.83858" fill="#F2994A"/>
<circle cx="208.285" cy="276.113" r="4.83858" fill="#F2994A"/>
<circle cx="242.155" cy="276.113" r="4.83858" fill="#F2994A"/>
<circle cx="276.025" cy="276.113" r="4.83858" fill="#F2994A"/>
</svg>
