<svg width="175" height="175" viewBox="0 0 175 175" fill="none" xmlns="http://www.w3.org/2000/svg">
<path fill-rule="evenodd" clip-rule="evenodd" d="M156.152 0.48291H168.469L0.438477 168.514V156.196L156.152 0.48291ZM18.914 174.672H6.59718L174.627 6.64162V18.9585L18.914 174.672ZM31.2311 174.672H43.5482L174.627 43.5926V31.2755L31.2311 174.672ZM68.182 174.672H55.8652L174.627 55.9097V68.2265L68.182 174.672ZM80.4991 174.672H92.8162L174.627 92.8607V80.5435L80.4991 174.672ZM117.45 174.672H105.133L174.627 105.178V117.495L117.45 174.672ZM129.767 174.672H142.084L174.627 142.128V129.812L129.767 174.672ZM166.719 174.672H154.401L174.627 154.445V166.763L166.719 174.672ZM143.835 0.48291H131.518L0.438477 131.563V143.879L143.835 0.48291ZM106.884 0.48291H119.201L0.438477 119.246V106.928L106.884 0.48291ZM94.567 0.48291H82.2498L0.438477 82.2943V94.6114L94.567 0.48291ZM57.6157 0.48291H69.9328L0.438477 69.9773V57.6601L57.6157 0.48291ZM45.2987 0.48291H32.9818L0.438477 33.0263V45.3431L45.2987 0.48291ZM8.34765 0.48291H20.6648L0.438477 20.7092V8.39208L8.34765 0.48291Z" fill="#F2994A"/>
</svg>
