<svg width="20" height="34" viewBox="0 0 20 34" fill="none" xmlns="http://www.w3.org/2000/svg">
<path d="M17.7833 3.66634H15V0.333008H5V3.66634H2.21667C1.63012 3.6707 1.06883 3.90564 0.654066 4.32041C0.239302 4.73517 0.00436114 5.29646 0 5.88301V31.4497C0.00436114 32.0362 0.239302 32.5975 0.654066 33.0123C1.06883 33.427 1.63012 33.662 2.21667 33.6663H17.7833C18.3699 33.662 18.9312 33.427 19.3459 33.0123C19.7607 32.5975 19.9956 32.0362 20 31.4497V5.88301C19.9956 5.29646 19.7607 4.73517 19.3459 4.32041C18.9312 3.90564 18.3699 3.6707 17.7833 3.66634ZM10.9667 23.0663L10 23.9497L9.03333 23.0663C5.6 19.9497 3.33333 17.8997 3.33333 15.333C3.32888 14.8503 3.42069 14.3715 3.60338 13.9246C3.78607 13.4777 4.05599 13.0717 4.39736 12.7304C4.73873 12.389 5.14471 12.1191 5.59158 11.9364C6.03845 11.7537 6.51725 11.6619 7 11.6663C7.56972 11.67 8.1321 11.7953 8.64948 12.0338C9.16686 12.2724 9.62731 12.6187 10 13.0497C10.3727 12.6187 10.8331 12.2724 11.3505 12.0338C11.8679 11.7953 12.4303 11.67 13 11.6663C13.4828 11.6619 13.9615 11.7537 14.4084 11.9364C14.8553 12.1191 15.2613 12.389 15.6026 12.7304C15.944 13.0717 16.2139 13.4777 16.3966 13.9246C16.5793 14.3715 16.6711 14.8503 16.6667 15.333C16.6667 17.8997 14.4 19.9497 10.9667 23.0663Z" fill="#1E1E1E"/>
</svg>
