<svg width="26" height="26" viewBox="0 0 26 26" fill="none" xmlns="http://www.w3.org/2000/svg">
<path d="M13.744 12.1374C13.2018 12.1374 12.6717 11.9766 12.2208 11.6754C11.7699 11.3741 11.4185 10.9459 11.211 10.4449C11.0035 9.9439 10.9492 9.39262 11.055 8.86077C11.1607 8.32892 11.4219 7.84038 11.8053 7.45693C12.1888 7.07349 12.6773 6.81236 13.2092 6.70657C13.741 6.60078 14.2923 6.65507 14.7933 6.86259C15.2943 7.07011 15.7225 7.42153 16.0238 7.87241C16.325 8.3233 16.4858 8.85339 16.4858 9.39567C16.4858 10.1228 16.197 10.8202 15.6828 11.3344C15.1686 11.8486 14.4712 12.1374 13.744 12.1374ZM15.2863 12.1374H12.2018C11.8995 12.1367 11.601 12.2053 11.3293 12.338C11.0577 12.4708 10.8202 12.6641 10.6351 12.9032C10.4523 13.1359 10.3257 13.4075 10.2649 13.697C10.2041 13.9866 10.2108 14.2862 10.2845 14.5727L11.4772 19.2729C11.5869 19.6979 11.835 20.0743 12.1823 20.3425C12.5297 20.6108 12.9565 20.7558 13.3955 20.7545H14.0926C14.5324 20.7569 14.9604 20.6124 15.3087 20.3441C15.6571 20.0757 15.9059 19.6987 16.0158 19.2729L17.2085 14.5727C17.2822 14.2862 17.2889 13.9866 17.2281 13.697C17.1673 13.4075 17.0407 13.1359 16.8579 12.9032C16.6723 12.6635 16.434 12.4697 16.1615 12.337C15.8889 12.2042 15.5895 12.1359 15.2863 12.1374ZM19.0553 11.9416C19.0035 12.1427 19.0338 12.3562 19.1393 12.535C19.2449 12.7139 19.4172 12.8435 19.6183 12.8954C19.6823 12.9116 19.7481 12.9198 19.8142 12.9198C19.9877 12.9197 20.1563 12.8619 20.2935 12.7556C20.4307 12.6493 20.5287 12.5004 20.5721 12.3323C20.84 11.2908 20.8661 10.2017 20.6483 9.14853C20.4306 8.09534 19.9748 7.10592 19.3158 6.256C18.6569 5.40607 17.8122 4.71816 16.8465 4.24492C15.8807 3.77168 14.8195 3.52564 13.744 3.52564C12.6686 3.52564 11.6074 3.77168 10.6416 4.24492C9.67591 4.71816 8.83123 5.40607 8.17227 6.256C7.5133 7.10592 7.05751 8.09534 6.83977 9.14853C6.62203 10.2017 6.64812 11.2908 6.91604 12.3323C6.94047 12.4333 6.98474 12.5284 7.04627 12.6121C7.1078 12.6958 7.18537 12.7664 7.27445 12.8198C7.36353 12.8733 7.46235 12.9085 7.56516 12.9233C7.66797 12.9382 7.77271 12.9325 7.8733 12.9066C7.97388 12.8806 8.06829 12.8349 8.15104 12.7721C8.23378 12.7093 8.30321 12.6306 8.35528 12.5407C8.40735 12.4508 8.44102 12.3515 8.45434 12.2485C8.46765 12.1454 8.46034 12.0408 8.43283 11.9406C8.22482 11.1306 8.20483 10.2838 8.37438 9.46486C8.54394 8.64595 8.89856 7.87666 9.41111 7.21586C9.92366 6.55505 10.5806 6.02023 11.3316 5.65231C12.0826 5.28439 12.9078 5.09311 13.744 5.09311C14.5803 5.09311 15.4055 5.28439 16.1565 5.65231C16.9075 6.02023 17.5644 6.55505 18.077 7.21586C18.5895 7.87666 18.9442 8.64595 19.1137 9.46486C19.2833 10.2838 19.2633 11.1316 19.0553 11.9416ZM13.744 0.386963C11.5564 0.386715 9.42673 1.09097 7.6705 2.39546C5.91427 3.69995 4.62481 5.53531 3.99303 7.6298C3.36126 9.72429 3.42076 11.9666 4.16273 14.0246C4.9047 16.0826 6.28969 17.847 8.11263 19.0565C8.2856 19.1715 8.49717 19.2131 8.70082 19.1722C8.90446 19.1312 9.0835 19.0111 9.19857 18.8382C9.25548 18.7525 9.29494 18.6564 9.31471 18.5554C9.33449 18.4545 9.33418 18.3506 9.31381 18.2498C9.29345 18.1489 9.25341 18.0531 9.19601 17.9677C9.1386 17.8823 9.06494 17.8091 8.97923 17.7522C7.43687 16.7288 6.26505 15.2359 5.63727 13.4946C5.00949 11.7533 4.9591 9.85612 5.49358 8.08394C6.02806 6.31177 7.11899 4.7588 8.60485 3.65496C10.0907 2.55112 11.8925 1.95507 13.7436 1.95507C15.5946 1.95507 17.3964 2.55112 18.8823 3.65496C20.3681 4.7588 21.4591 6.31177 21.9935 8.08394C22.528 9.85612 22.4776 11.7533 21.8498 13.4946C21.2221 15.2359 20.0502 16.7288 18.5079 17.7522C18.3389 17.8689 18.2225 18.0474 18.1838 18.2491C18.145 18.4508 18.1871 18.6596 18.3008 18.8307C18.4146 19.0017 18.5909 19.1212 18.7919 19.1634C18.9929 19.2057 19.2025 19.1673 19.3755 19.0565C21.1984 17.847 22.5834 16.0826 23.3254 14.0246C24.0673 11.9666 24.1268 9.72429 23.4951 7.6298C22.8633 5.53531 21.5738 3.69995 19.8176 2.39546C18.0614 1.09097 15.9317 0.386715 13.744 0.386963Z" fill="#697077"/>
</svg>
