<svg width="26" height="26" viewBox="0 0 26 26" fill="none" xmlns="http://www.w3.org/2000/svg">
<path d="M13.744 12.1377C13.2018 12.1377 12.6717 11.9769 12.2208 11.6756C11.7699 11.3743 11.4185 10.9461 11.211 10.4451C11.0035 9.94415 10.9492 9.39287 11.055 8.86101C11.1607 8.32916 11.4219 7.84062 11.8053 7.45718C12.1888 7.07373 12.6773 6.8126 13.2092 6.70681C13.741 6.60102 14.2923 6.65532 14.7933 6.86284C15.2943 7.07035 15.7225 7.42178 16.0238 7.87266C16.325 8.32354 16.4858 8.85364 16.4858 9.39591C16.4858 10.1231 16.197 10.8205 15.6828 11.3346C15.1686 11.8488 14.4712 12.1377 13.744 12.1377ZM15.2863 12.1377H12.2018C11.8995 12.1369 11.601 12.2055 11.3293 12.3383C11.0577 12.471 10.8202 12.6644 10.6351 12.9034C10.4523 13.1361 10.3257 13.4077 10.2649 13.6973C10.2041 13.9868 10.2108 14.2865 10.2845 14.573L11.4772 19.2732C11.5869 19.6982 11.835 20.0745 12.1823 20.3428C12.5297 20.6111 12.9565 20.756 13.3955 20.7547H14.0926C14.5324 20.7571 14.9604 20.6127 15.3087 20.3443C15.6571 20.0759 15.9059 19.699 16.0158 19.2732L17.2085 14.573C17.2822 14.2865 17.2889 13.9868 17.2281 13.6973C17.1673 13.4077 17.0407 13.1361 16.8579 12.9034C16.6723 12.6637 16.434 12.47 16.1615 12.3372C15.8889 12.2044 15.5895 12.1361 15.2863 12.1377ZM19.0553 11.9418C19.0035 12.143 19.0338 12.3564 19.1393 12.5353C19.2449 12.7141 19.4172 12.8437 19.6183 12.8956C19.6823 12.9119 19.7481 12.9201 19.8142 12.9201C19.9877 12.9199 20.1563 12.8622 20.2935 12.7558C20.4307 12.6495 20.5287 12.5006 20.5721 12.3326C20.84 11.291 20.8661 10.202 20.6483 9.14877C20.4306 8.09558 19.9748 7.10617 19.3158 6.25624C18.6569 5.40632 17.8122 4.71841 16.8465 4.24516C15.8807 3.77192 14.8195 3.52588 13.744 3.52588C12.6686 3.52588 11.6074 3.77192 10.6416 4.24516C9.67591 4.71841 8.83123 5.40632 8.17227 6.25624C7.5133 7.10617 7.05751 8.09558 6.83977 9.14877C6.62203 10.202 6.64812 11.291 6.91604 12.3326C6.94047 12.4335 6.98474 12.5286 7.04627 12.6123C7.1078 12.696 7.18537 12.7666 7.27445 12.8201C7.36353 12.8735 7.46235 12.9087 7.56516 12.9236C7.66797 12.9385 7.77271 12.9328 7.8733 12.9068C7.97388 12.8808 8.06829 12.8351 8.15104 12.7723C8.23378 12.7095 8.30321 12.6309 8.35528 12.541C8.40735 12.4511 8.44102 12.3517 8.45434 12.2487C8.46765 12.1457 8.46034 12.041 8.43283 11.9409C8.22482 11.1309 8.20483 10.284 8.37438 9.46511C8.54394 8.64619 8.89856 7.87691 9.41111 7.2161C9.92366 6.5553 10.5806 6.02048 11.3316 5.65255C12.0826 5.28463 12.9078 5.09335 13.744 5.09335C14.5803 5.09335 15.4055 5.28463 16.1565 5.65255C16.9075 6.02048 17.5644 6.5553 18.077 7.2161C18.5895 7.87691 18.9442 8.64619 19.1137 9.46511C19.2833 10.284 19.2633 11.1318 19.0553 11.9418ZM13.744 0.387207C11.5564 0.386959 9.42673 1.09122 7.6705 2.3957C5.91427 3.70019 4.62481 5.53555 3.99303 7.63004C3.36126 9.72453 3.42076 11.9668 4.16273 14.0248C4.9047 16.0829 6.28969 17.8473 8.11263 19.0568C8.2856 19.1718 8.49717 19.2134 8.70082 19.1724C8.90446 19.1315 9.0835 19.0113 9.19857 18.8384C9.25548 18.7527 9.29494 18.6566 9.31471 18.5557C9.33449 18.4547 9.33418 18.3508 9.31381 18.25C9.29345 18.1492 9.25341 18.0533 9.19601 17.968C9.1386 17.8826 9.06494 17.8094 8.97923 17.7525C7.43687 16.729 6.26505 15.2362 5.63727 13.4949C5.00949 11.7535 4.9591 9.85636 5.49358 8.08419C6.02806 6.31201 7.11899 4.75905 8.60485 3.6552C10.0907 2.55136 11.8925 1.95532 13.7436 1.95532C15.5946 1.95532 17.3964 2.55136 18.8823 3.6552C20.3681 4.75905 21.4591 6.31201 21.9935 8.08419C22.528 9.85636 22.4776 11.7535 21.8498 13.4949C21.2221 15.2362 20.0502 16.729 18.5079 17.7525C18.3389 17.8692 18.2225 18.0476 18.1838 18.2493C18.145 18.451 18.1871 18.6599 18.3008 18.8309C18.4146 19.0019 18.5909 19.1214 18.7919 19.1637C18.9929 19.2059 19.2025 19.1675 19.3755 19.0568C21.1984 17.8473 22.5834 16.0829 23.3254 14.0248C24.0673 11.9668 24.1268 9.72453 23.4951 7.63004C22.8633 5.53555 21.5738 3.70019 19.8176 2.3957C18.0614 1.09122 15.9317 0.386959 13.744 0.387207Z" fill="#F2F4F8"/>
</svg>
